<?xml version="1.0" standalone="no"?>
<!DOCTYPE svg PUBLIC "-//W3C//DTD SVG 20010904//EN"
 "http://www.w3.org/TR/2001/REC-SVG-20010904/DTD/svg10.dtd">
<svg version="1.0" xmlns="http://www.w3.org/2000/svg"
 width="2303.000000pt" height="2303.000000pt" viewBox="0 0 2303.000000 2303.000000"
 preserveAspectRatio="xMidYMid meet">
<metadata>
Created by potrace 1.11, written by Peter Selinger 2001-2013
</metadata>
<g transform="translate(0.000000,2303.000000) scale(0.100000,-0.100000)"
fill="#000000" stroke="none">
<path d="M7380 23009 c-58 -5 -159 -10 -225 -10 -125 0 -248 -24 -358 -70 -26
-11 -68 -22 -93 -24 -25 -3 -54 -10 -65 -15 -11 -6 -86 -26 -167 -45 -152 -35
-244 -66 -347 -116 -33 -16 -66 -29 -73 -29 -38 0 -229 -76 -427 -170 -33 -16
-87 -40 -120 -54 -33 -13 -98 -46 -145 -72 -47 -26 -120 -65 -162 -86 -42 -20
-96 -56 -120 -79 -24 -22 -65 -51 -93 -64 -59 -27 -284 -176 -374 -249 -89
-71 -140 -108 -155 -110 -7 -1 -23 -12 -37 -25 -35 -34 -115 -92 -186 -135
-34 -21 -92 -69 -130 -107 -37 -39 -89 -84 -114 -102 -58 -40 -217 -184 -284
-256 -27 -30 -119 -125 -204 -210 -84 -86 -170 -178 -191 -206 -44 -59 -120
-131 -155 -147 -27 -12 -131 -134 -155 -182 -8 -16 -53 -72 -100 -125 -47 -53
-103 -123 -124 -156 -21 -33 -60 -87 -86 -120 -25 -33 -58 -81 -73 -107 -15
-26 -45 -68 -67 -93 -22 -25 -59 -76 -83 -113 -24 -37 -56 -80 -71 -97 -14
-16 -50 -77 -78 -134 -30 -59 -73 -125 -100 -154 -46 -50 -148 -210 -163 -256
-4 -13 -25 -51 -46 -84 -22 -33 -39 -67 -39 -76 0 -19 -37 -103 -49 -111 -4
-3 -25 -36 -46 -75 -21 -38 -46 -84 -56 -102 -10 -17 -23 -51 -29 -75 -16 -59
-75 -184 -106 -225 -29 -38 -77 -141 -70 -151 7 -11 -57 -142 -92 -191 -32
-43 -43 -76 -88 -249 -16 -61 -40 -123 -66 -167 -65 -112 -77 -138 -88 -211
-6 -38 -15 -71 -19 -74 -4 -3 -11 -25 -15 -49 -4 -24 -17 -67 -31 -96 -13 -29
-29 -72 -35 -96 -18 -72 -60 -209 -86 -282 -13 -38 -24 -83 -24 -102 0 -18 -9
-54 -19 -79 -11 -24 -47 -170 -81 -323 -34 -153 -68 -305 -76 -338 -53 -217
-135 -602 -153 -720 -12 -77 -26 -155 -32 -173 -6 -18 -8 -49 -5 -68 4 -19 3
-34 -2 -34 -10 0 -23 -37 -27 -80 -2 -14 -10 -50 -18 -80 -8 -30 -18 -100 -22
-155 -4 -55 -11 -107 -16 -116 -4 -9 -9 -56 -10 -105 -1 -49 -6 -98 -12 -108
-5 -11 -13 -187 -18 -400 -8 -369 -33 -747 -63 -926 -20 -117 -27 -232 -17
-261 6 -17 8 -35 6 -40 -9 -14 57 10 95 35 46 30 93 118 115 216 44 199 60
253 101 349 25 57 55 140 66 185 11 44 35 124 53 176 19 52 56 165 83 250 28
85 79 223 115 305 36 83 81 195 101 250 20 55 50 129 66 165 16 36 56 133 88
215 139 352 218 537 277 650 183 348 236 462 271 576 8 25 25 62 38 82 14 20
54 105 91 189 89 205 201 416 296 558 43 65 92 144 110 176 18 32 44 75 59 94
15 19 62 103 105 185 43 83 83 157 90 165 7 8 26 42 43 75 16 33 44 78 62 100
17 22 88 126 157 230 394 596 648 918 1058 1346 318 331 770 691 1139 908 268
158 597 289 866 344 426 89 437 90 655 83 194 -7 292 -19 426 -50 35 -8 116
-27 179 -41 63 -14 131 -35 150 -47 19 -11 68 -33 110 -50 135 -53 354 -167
430 -222 41 -30 99 -72 129 -93 130 -91 373 -358 468 -514 77 -126 173 -297
173 -309 0 -6 19 -50 42 -98 23 -48 41 -92 40 -99 -2 -7 8 -19 21 -28 32 -20
47 -56 58 -135 5 -36 14 -78 19 -95 5 -16 14 -67 20 -112 6 -46 20 -109 31
-140 35 -103 48 -469 20 -595 -5 -23 -15 -81 -21 -128 -22 -172 -79 -428 -110
-495 -10 -22 -44 -105 -75 -185 -31 -80 -87 -208 -125 -285 -81 -168 -96 -202
-105 -235 -4 -14 -24 -56 -45 -95 -21 -38 -55 -104 -75 -145 -20 -41 -41 -82
-46 -90 -5 -8 -15 -29 -23 -46 -7 -17 -36 -59 -64 -93 -27 -34 -59 -88 -71
-120 -11 -32 -30 -68 -41 -81 -12 -13 -40 -58 -62 -99 -47 -84 -119 -192 -154
-231 -13 -14 -41 -59 -62 -100 -36 -68 -98 -169 -120 -195 -20 -24 -91 -152
-97 -175 -3 -14 -26 -47 -51 -75 -25 -27 -66 -86 -92 -130 -27 -44 -77 -116
-113 -161 -159 -199 -213 -272 -230 -311 -20 -46 -166 -243 -180 -243 -5 0
-34 -38 -65 -85 -31 -47 -60 -85 -65 -85 -5 0 -9 -5 -9 -11 0 -16 -57 -98
-109 -155 -25 -28 -65 -82 -89 -120 -23 -38 -59 -87 -80 -109 -20 -22 -56 -70
-79 -105 -24 -36 -59 -82 -78 -103 -20 -21 -58 -71 -84 -110 -27 -40 -68 -90
-90 -112 -23 -22 -59 -74 -81 -115 -23 -43 -66 -102 -100 -137 -34 -34 -75
-82 -93 -107 -18 -25 -60 -79 -95 -121 -34 -43 -74 -98 -87 -124 -13 -25 -36
-57 -51 -71 -15 -14 -93 -113 -172 -220 -80 -107 -151 -200 -157 -207 -7 -6
-55 -67 -108 -135 -52 -68 -182 -229 -289 -360 -106 -130 -209 -257 -228 -283
-19 -25 -57 -73 -85 -107 -27 -33 -65 -81 -83 -106 -18 -26 -39 -51 -46 -57
-7 -5 -21 -23 -31 -40 -11 -16 -56 -74 -100 -128 -44 -55 -107 -137 -140 -183
-169 -235 -526 -710 -934 -1242 -47 -62 -102 -136 -121 -166 -19 -29 -51 -73
-71 -97 -45 -55 -87 -120 -115 -179 -12 -25 -45 -70 -73 -100 -29 -30 -59 -68
-68 -85 -42 -81 -122 -202 -165 -252 -27 -30 -57 -72 -68 -93 -10 -20 -30 -50
-43 -66 -14 -16 -40 -61 -60 -100 -20 -39 -46 -84 -59 -100 -39 -48 -94 -145
-122 -214 -15 -36 -39 -81 -55 -100 -39 -50 -216 -387 -236 -450 -13 -42 -67
-141 -121 -223 -55 -82 -91 -178 -104 -282 -7 -56 -18 -92 -40 -140 -71 -154
-88 -222 -119 -472 -55 -437 -61 -1203 -11 -1478 5 -27 14 -93 21 -145 12
-101 54 -280 112 -475 19 -66 40 -165 46 -220 14 -121 29 -176 54 -194 10 -7
16 -20 13 -28 -3 -8 -1 -11 4 -8 12 7 42 -60 59 -133 7 -28 17 -54 21 -57 13
-8 42 -114 35 -126 -4 -5 -1 -8 7 -7 7 2 12 -5 12 -14 -1 -10 3 -15 9 -11 6 4
8 0 4 -11 -4 -10 -3 -15 3 -11 12 8 43 -52 34 -67 -5 -7 -3 -8 6 -3 10 6 12 4
7 -8 -4 -10 -2 -16 5 -14 6 1 20 -20 30 -48 10 -27 23 -59 28 -70 5 -11 16
-36 24 -55 8 -19 31 -63 50 -97 19 -34 32 -64 28 -67 -3 -3 0 -6 7 -6 7 0 10
-4 7 -9 -3 -5 5 -16 18 -25 14 -9 36 -44 53 -86 15 -39 41 -85 56 -103 16 -18
25 -26 21 -18 -4 8 -3 12 2 8 5 -3 20 -27 32 -54 13 -26 28 -57 34 -68 7 -11
18 -32 25 -46 19 -38 93 -120 103 -114 5 3 12 0 16 -6 5 -8 2 -10 -7 -5 -8 4
-4 -1 8 -11 12 -10 28 -34 34 -53 18 -51 54 -105 95 -142 20 -18 39 -33 42
-33 16 -1 31 -17 26 -29 -3 -8 0 -17 7 -22 8 -5 10 -3 4 6 -5 9 -4 11 4 6 6
-4 9 -11 6 -16 -3 -4 14 -32 36 -62 59 -76 324 -342 389 -391 30 -22 82 -66
115 -97 33 -31 87 -75 120 -97 33 -23 78 -60 100 -83 22 -22 63 -55 90 -72 28
-18 73 -53 100 -78 53 -49 320 -220 394 -253 25 -11 67 -34 95 -52 122 -78
464 -239 766 -360 845 -339 1899 -573 2880 -637 256 -17 1428 -16 1755 0 274
15 545 36 655 52 181 27 210 31 295 39 50 5 131 18 180 30 50 12 135 26 190
31 103 10 357 42 456 59 68 11 237 57 285 77 46 19 201 50 293 58 85 7 348 71
501 121 58 19 150 43 205 54 105 20 359 92 396 111 40 22 134 51 210 66 108
20 209 57 258 92 26 19 61 34 89 38 100 14 335 90 434 140 53 27 122 50 256
85 40 10 125 45 190 78 68 35 140 64 172 70 77 13 153 45 219 91 31 21 70 42
86 45 59 13 240 79 268 97 43 30 210 106 261 119 26 6 73 28 104 48 82 53 159
95 217 116 28 11 113 51 190 91 77 39 158 78 180 84 44 14 220 105 246 127 9
7 42 24 75 37 32 12 124 62 203 109 79 48 149 87 156 87 7 0 41 20 76 43 35
24 116 69 180 99 63 31 137 73 163 93 27 20 69 46 94 56 69 30 161 88 214 134
25 23 72 51 104 63 31 13 84 43 118 69 33 25 75 52 93 59 40 17 198 120 236
153 15 14 57 41 92 60 36 20 96 58 133 84 37 26 103 71 147 100 137 90 385
265 653 462 74 53 245 170 380 260 136 90 265 182 287 205 22 23 69 57 106 75
36 18 95 60 130 92 94 83 200 170 282 231 40 29 95 75 122 101 28 26 70 63 95
81 44 34 158 134 474 420 216 195 351 312 531 460 83 67 198 172 257 231 58
60 135 132 170 160 101 83 255 249 284 306 l26 52 -22 31 c-12 16 -26 27 -32
24 -6 -4 -8 -2 -5 3 4 6 -10 22 -31 35 -20 14 -65 51 -100 82 -61 55 -80 68
-66 45 4 -7 -21 3 -55 21 -34 19 -66 41 -71 51 -5 9 -56 44 -114 78 -57 33
-137 88 -177 122 -41 34 -104 82 -141 107 -38 25 -68 49 -68 53 0 5 -6 9 -14
9 -7 0 -20 7 -27 17 -8 9 -39 32 -69 51 -30 19 -70 50 -88 69 -18 18 -66 56
-107 83 -41 28 -82 58 -92 69 -17 17 -488 376 -618 471 -33 24 -62 46 -65 50
-10 12 -146 117 -195 150 -27 18 -57 39 -65 47 -37 33 -103 83 -135 103 -19
12 -35 27 -35 32 0 6 -3 9 -6 6 -3 -3 -16 4 -29 16 -32 29 -44 38 -90 66 -22
14 -49 34 -60 45 -40 42 -200 158 -252 182 -29 14 -58 32 -65 41 -12 16 -11
16 7 2 19 -14 19 -14 6 3 -8 10 -20 16 -27 13 -7 -3 -18 3 -26 12 -12 15 -11
16 7 3 11 -7 6 0 -12 15 -17 16 -58 45 -90 64 -32 19 -83 55 -113 80 -81 67
-95 77 -86 62 5 -8 -10 -2 -33 13 -39 26 -56 44 -28 30 6 -4 1 3 -13 14 -14
11 -33 21 -42 21 -10 0 -25 11 -34 25 -9 14 -23 25 -30 25 -8 0 -14 3 -14 8 0
4 -36 27 -80 51 -43 24 -77 48 -74 52 3 5 -1 6 -9 3 -8 -3 -20 3 -28 13 -12
16 -12 17 1 8 9 -5 5 0 -9 12 -14 13 -65 46 -113 74 -49 29 -88 57 -88 62 0 6
-3 7 -7 4 -5 -6 -50 23 -142 92 -19 14 -31 19 -26 11 7 -12 6 -13 -6 -5 -8 6
-34 24 -59 40 -25 17 -49 36 -53 43 -5 7 -12 10 -18 7 -5 -4 -9 -2 -9 3 0 6
-28 24 -62 42 -34 18 -87 49 -117 70 -31 21 -72 45 -91 55 -19 10 -37 21 -40
25 -12 17 -96 63 -153 84 -34 12 -61 27 -60 34 2 6 -3 9 -11 6 -8 -3 -20 3
-27 14 -20 28 -166 110 -226 128 -29 8 -59 24 -66 34 -12 17 -459 249 -612
317 -38 17 -110 50 -160 74 -181 84 -493 210 -619 249 -55 17 -118 42 -140 55
-58 33 -199 80 -281 94 -103 17 -351 91 -390 117 -37 24 -283 72 -430 84 -77
6 -160 16 -185 22 -25 5 -90 16 -145 24 -55 7 -109 18 -120 23 -68 31 -611 55
-775 35 -41 -5 -106 -8 -145 -6 -38 1 -99 -4 -135 -12 -36 -9 -139 -25 -230
-36 -470 -60 -949 -136 -1095 -174 -84 -22 -143 -36 -380 -88 -49 -11 -106
-27 -125 -35 -19 -9 -66 -26 -105 -38 -38 -13 -101 -34 -140 -48 -82 -29 -156
-47 -189 -47 -43 0 -140 -37 -216 -83 -42 -25 -95 -48 -120 -52 -73 -12 -200
-65 -239 -100 -47 -42 -69 -53 -153 -76 -79 -22 -197 -79 -219 -105 -8 -9 -39
-28 -69 -41 -30 -14 -68 -35 -85 -47 -16 -13 -41 -26 -55 -29 -14 -4 -52 -27
-84 -51 -32 -25 -73 -50 -90 -56 -85 -32 -167 -83 -247 -153 -9 -8 -48 -33
-85 -55 -38 -22 -89 -58 -114 -79 -25 -22 -72 -58 -105 -80 -33 -23 -85 -64
-115 -92 -30 -28 -69 -58 -86 -66 -17 -8 -53 -38 -79 -67 -26 -29 -73 -70
-104 -93 -32 -22 -106 -92 -167 -155 -60 -63 -159 -164 -219 -225 -61 -60
-140 -146 -175 -190 -36 -44 -70 -84 -76 -90 -6 -5 -21 -26 -34 -45 -13 -19
-41 -53 -62 -76 -22 -23 -40 -47 -42 -55 -5 -32 -42 -87 -96 -144 -31 -33 -77
-89 -101 -125 -25 -36 -68 -96 -96 -135 -29 -38 -62 -97 -74 -130 -12 -33 -39
-80 -59 -105 -42 -50 -99 -159 -124 -237 -10 -28 -32 -72 -51 -96 -45 -58
-102 -166 -126 -236 -11 -31 -31 -73 -45 -94 -13 -20 -45 -92 -70 -160 -52
-141 -71 -186 -89 -207 -56 -65 -105 -195 -105 -279 0 -21 -16 -85 -35 -142
-19 -57 -43 -136 -54 -174 -10 -39 -31 -110 -45 -160 -27 -92 -61 -247 -76
-345 -5 -30 -16 -80 -25 -110 -19 -63 -22 -185 -4 -206 6 -7 28 -18 48 -24 45
-13 182 -13 214 -1 14 6 63 15 109 21 45 6 148 25 228 41 80 16 231 42 335 58
105 16 210 34 235 40 97 21 219 40 300 46 169 11 412 47 620 91 189 41 288 57
505 83 207 25 954 123 1005 131 30 5 127 16 215 25 366 36 760 87 1125 145
293 47 433 63 860 95 179 13 406 35 505 49 99 14 295 35 435 46 140 11 325 28
410 36 85 9 295 20 465 24 262 7 321 12 379 28 93 27 103 39 74 82 -13 19 -27
33 -33 33 -5 -1 -14 5 -18 13 -23 40 -216 114 -298 114 -21 0 -40 4 -43 9 -7
10 -81 26 -111 23 -11 -1 -74 19 -140 44 -77 30 -184 60 -300 84 -98 21 -213
50 -255 64 -146 49 -459 136 -507 142 -26 3 -84 16 -128 29 -44 13 -118 33
-165 45 -47 13 -121 33 -165 47 -49 15 -124 28 -195 33 -107 9 -258 42 -308
69 -11 6 -36 11 -56 11 -19 0 -88 12 -153 26 -148 33 -311 59 -507 84 -49 6
-110 17 -135 24 -181 55 -332 88 -399 87 -26 0 -60 4 -77 9 -58 17 -251 40
-420 50 -118 7 -191 16 -240 30 -41 12 -92 20 -125 19 -139 -6 -207 0 -231 22
-13 11 -17 17 -9 13 8 -4 2 7 -14 24 -23 25 -28 39 -28 80 0 64 17 95 93 167
101 96 214 179 511 376 47 32 89 63 93 69 4 6 32 24 63 39 32 15 113 59 182
98 160 90 499 240 660 291 316 102 500 145 695 162 66 6 126 13 133 15 31 11
663 40 852 39 213 0 350 -13 615 -59 77 -13 181 -29 230 -35 93 -12 201 -40
321 -82 38 -14 114 -35 169 -47 108 -25 256 -67 345 -99 59 -22 208 -66 359
-107 52 -15 107 -35 121 -45 25 -18 193 -84 333 -131 33 -11 107 -44 166 -73
58 -30 144 -69 191 -87 47 -19 114 -54 150 -78 36 -24 117 -64 180 -88 63 -24
144 -61 180 -82 36 -22 159 -90 275 -151 115 -61 256 -144 312 -183 57 -40
130 -86 162 -102 32 -17 79 -49 105 -72 26 -23 68 -51 94 -63 26 -12 90 -50
142 -85 52 -34 166 -108 253 -163 288 -186 615 -428 706 -526 13 -14 27 -23
32 -21 4 3 11 0 15 -6 5 -8 2 -10 -7 -5 -8 4 -4 -1 7 -11 27 -22 50 -68 59
-114 11 -62 -10 -90 -125 -168 -58 -38 -154 -110 -213 -158 -59 -48 -136 -107
-170 -130 -100 -68 -225 -170 -344 -281 -36 -33 -96 -74 -145 -99 -46 -23 -79
-42 -75 -43 9 0 -53 -55 -62 -55 -16 -2 -79 -41 -101 -63 -62 -61 -174 -138
-258 -176 -18 -8 -56 -37 -85 -64 -28 -27 -83 -66 -122 -87 -40 -21 -91 -60
-120 -90 -45 -48 -156 -115 -191 -115 -6 0 -38 -25 -72 -55 -35 -32 -90 -69
-129 -86 -37 -17 -83 -43 -102 -57 -19 -14 -31 -20 -26 -12 4 7 -23 -13 -60
-44 -38 -31 -75 -56 -82 -56 -33 0 -141 -59 -162 -89 -12 -17 -28 -31 -35 -31
-8 0 -19 -6 -25 -14 -7 -8 -54 -35 -104 -60 -51 -24 -116 -65 -144 -89 -29
-25 -78 -55 -108 -66 -89 -33 -177 -81 -227 -122 -34 -30 -61 -42 -104 -50
-32 -6 -72 -18 -89 -26 -25 -14 -108 -75 -125 -93 -20 -23 -75 -51 -122 -63
-31 -8 -58 -13 -60 -11 -2 2 -29 -17 -58 -41 -30 -25 -64 -48 -75 -51 -11 -4
-31 -15 -44 -25 -13 -11 -54 -28 -90 -39 -36 -12 -93 -37 -126 -57 -112 -67
-180 -101 -225 -113 -65 -16 -156 -57 -225 -102 -33 -21 -91 -48 -130 -60 -38
-12 -122 -47 -185 -79 -68 -35 -148 -66 -195 -78 -89 -21 -165 -52 -210 -86
-36 -27 -152 -82 -186 -89 -13 -2 -42 -7 -64 -11 -49 -8 -248 -92 -273 -115
-17 -17 -167 -56 -299 -80 -34 -6 -83 -20 -110 -31 -26 -12 -66 -29 -88 -39
-22 -10 -92 -30 -155 -45 -63 -14 -133 -30 -155 -36 -22 -5 -73 -16 -113 -24
-40 -8 -83 -20 -95 -27 -12 -7 -40 -18 -62 -24 -22 -7 -71 -23 -110 -37 -40
-15 -147 -37 -250 -52 -99 -14 -250 -41 -335 -60 -669 -146 -1348 -185 -2075
-119 -222 20 -588 76 -750 114 -44 11 -125 29 -180 40 -55 11 -113 25 -130 30
-16 5 -63 14 -104 20 -41 6 -79 14 -85 19 -6 5 -36 16 -66 26 -30 10 -77 28
-105 40 -27 12 -99 37 -160 54 -60 18 -135 45 -165 61 -72 37 -240 107 -293
121 -23 6 -53 19 -67 29 -41 29 -230 122 -295 145 -33 11 -59 26 -58 33 2 6
-3 9 -11 6 -8 -3 -21 5 -30 18 -9 12 -16 19 -16 15 0 -4 -28 11 -62 34 -34 23
-85 56 -114 73 -291 173 -654 477 -886 741 -140 160 -283 381 -373 575 -32 68
-68 140 -81 160 -24 36 -39 80 -73 211 -10 41 -37 135 -60 209 -68 223 -76
281 -75 560 1 264 16 421 58 610 65 290 76 343 95 449 12 62 30 130 41 150 10
21 49 127 85 237 73 218 200 524 305 735 38 74 73 153 79 176 6 22 27 61 47
87 50 66 110 175 124 225 6 23 26 59 44 79 19 20 50 69 70 107 54 104 108 197
137 235 14 19 41 62 59 95 19 33 48 80 66 105 17 25 60 99 95 165 35 66 80
138 100 160 19 22 55 77 80 123 24 46 65 107 91 136 26 30 69 87 95 128 154
240 338 514 395 586 38 48 74 96 528 716 428 583 449 611 580 780 118 153 313
396 426 531 152 180 408 503 524 660 203 274 242 324 375 479 74 86 171 205
217 264 45 59 101 130 123 157 23 28 52 68 66 90 13 22 38 56 55 75 28 32 303
406 448 610 33 47 63 87 66 90 30 25 425 584 595 840 162 246 197 303 253 415
22 44 54 97 71 119 17 21 36 57 41 80 21 78 42 121 95 191 49 64 55 78 69 156
11 66 28 113 70 196 47 95 60 133 91 279 42 194 53 235 90 359 167 560 220
1323 140 2010 -30 256 -99 624 -129 684 -20 41 -63 191 -71 246 -9 74 -43 173
-81 235 -18 30 -51 113 -73 183 -22 71 -48 141 -58 157 -89 141 -128 209 -147
258 -13 32 -43 85 -67 118 -24 33 -68 101 -98 151 -29 49 -69 108 -88 129 -20
21 -29 30 -22 19 11 -17 11 -18 -1 -7 -8 7 -15 16 -15 20 0 4 -10 21 -23 37
-13 17 -35 49 -50 72 -75 116 -481 529 -509 519 -8 -3 -11 -1 -8 4 6 9 -31 46
-93 94 -24 18 -25 18 -12 1 9 -12 -3 -6 -32 14 -27 17 -48 35 -48 38 0 3 8 0
18 -7 9 -7 -1 4 -22 24 -52 47 -336 239 -445 299 -77 42 -198 103 -406 202
-150 72 -301 126 -395 140 -25 4 -68 18 -97 31 -46 21 -128 45 -248 73 -85 20
-205 33 -374 42 -289 15 -579 18 -691 8z"/>
</g>
</svg>
